<?xml version="1.0" encoding="UTF-8" standalone="no"?>
<svg
   xmlns:dc="http://purl.org/dc/elements/1.1/"
   xmlns:cc="http://creativecommons.org/ns#"
   xmlns:rdf="http://www.w3.org/1999/02/22-rdf-syntax-ns#"
   xmlns:svg="http://www.w3.org/2000/svg"
   xmlns="http://www.w3.org/2000/svg"
   xmlns:sodipodi="http://sodipodi.sourceforge.net/DTD/sodipodi-0.dtd"
   xmlns:inkscape="http://www.inkscape.org/namespaces/inkscape"
   version="1.1"
   id="Layer_1"
   x="0px"
   y="0px"
   viewBox="0 0 180.5 43.566299"
   xml:space="preserve"
   sodipodi:docname="fulllogo.svg"
   width="180.5"
   height="43.566299"
   inkscape:version="1.0.1 (3bc2e813f5, 2020-09-07)"><metadata
   id="metadata130"><rdf:RDF><cc:Work
       rdf:about=""><dc:format>image/svg+xml</dc:format><dc:type
         rdf:resource="http://purl.org/dc/dcmitype/StillImage" /><dc:title></dc:title></cc:Work></rdf:RDF></metadata><defs
   id="defs128" /><sodipodi:namedview
   pagecolor="#ffffff"
   bordercolor="#666666"
   borderopacity="1"
   objecttolerance="10"
   gridtolerance="10"
   guidetolerance="10"
   inkscape:pageopacity="0"
   inkscape:pageshadow="2"
   inkscape:window-width="1857"
   inkscape:window-height="1057"
   id="namedview126"
   showgrid="false"
   inkscape:zoom="4.335"
   inkscape:cx="50.322953"
   inkscape:cy="22"
   inkscape:window-x="3832"
   inkscape:window-y="619"
   inkscape:window-maximized="1"
   inkscape:current-layer="Layer_1"
   fit-margin-top="0"
   fit-margin-left="0"
   fit-margin-right="0"
   fit-margin-bottom="0" />
<style
   type="text/css"
   id="style71">
	.st0{fill:#B485C7;}
	.st1{fill:#945BAB;}
	.st2{fill:#C28CC2;}
	.st3{fill:#8A25B1;}
	.st4{fill:#8323A8;}
	.st5{fill:#CFABCF;}
</style>
<g
   id="g75"
   transform="translate(-10,-78)">
	<path
   class="st0"
   d="m 35.5,92 c 0.4,-5.2 2.3,-10.5 6.3,-14 3.5,4.2 6.1,9.4 5.4,15 -0.3,4.6 -2.5,8.7 -4.6,12.7 -0.8,0 -2.4,-0.1 -3.3,-0.2 -1.8,-4.3 -3.9,-8.7 -3.8,-13.5 z"
   id="path73" />
</g>
<g
   id="g79"
   transform="translate(-10,-78)">
	<path
   class="st1"
   d="m 16.8,89.3 c 4.8,-0.1 10,0.8 13.8,4 4.1,3.3 6.4,8.1 8.3,12.9 -0.5,0.6 -1.5,1.7 -1.9,2.2 -4.5,-1.1 -9.3,-2.3 -12.9,-5.3 C 20,99.5 17.2,94.6 16.8,89.3 Z"
   id="path77" />
</g>
<g
   id="g83"
   transform="translate(-10,-78)">
	<path
   class="st2"
   d="m 51.8,94.7 c 4.3,-3 9.7,-4.3 14.9,-3.8 -1,5.1 -3.3,10.1 -7.7,13.1 -4,2.9 -8.9,4 -13.8,4.6 -0.5,-0.6 -1.4,-1.8 -1.9,-2.4 2.4,-4.2 4.6,-8.6 8.5,-11.5 z"
   id="path81" />
</g>
<g
   id="g111"
   transform="translate(-10,-78)">
	<path
   class="st3"
   d="m 154.1,94.9 c 1,0.5 2.8,0.7 2.5,2.2 0,3.6 -0.9,7.2 -1.3,10.8 2.1,-2.1 4,-4.4 5.7,-6.8 0.7,0.3 1.3,0.6 2,1 -1.7,2 -3.6,3.9 -5.4,5.8 1.7,2.8 3.8,5.4 6.2,7.6 -1.3,0.2 -2.9,1.2 -3.8,-0.2 -1.8,-2 -2.9,-4.4 -4.5,-6.6 -0.6,2.7 -0.4,5.4 -0.3,8.1 -1.4,-0.7 -3.1,-1.6 -2.7,-3.5 0.6,-6.3 2,-12.3 1.6,-18.4 z"
   id="path85" />
	<path
   class="st3"
   d="m 74.2,96 c 1.3,0.5 3.1,0.5 3.6,2.2 2,4.4 3.1,9.2 4.9,13.7 1,-5.4 1.6,-10.8 1.7,-16.2 0.8,0.7 2.1,1.2 1.9,2.5 -0.2,6.1 -2.5,12.1 -1.1,18.2 -1.4,-0.7 -3.4,-0.9 -4,-2.6 -2.2,-4.3 -3.2,-9.2 -5,-13.6 -1,5.4 -2,10.8 -1.3,16.3 -1.2,-0.9 -2.7,-1.7 -2.3,-3.5 0.5,-5.6 1.9,-11.3 1.6,-17 z"
   id="path87" />
	<path
   class="st3"
   d="m 142.7,101.8 c 1.7,-1.2 4.1,-1.4 6,-0.6 0.7,0.9 0.5,2.1 0.8,3.1 -1.7,-0.8 -3.3,-2.8 -5.4,-1.8 -1.6,1.4 0.2,3.1 1.3,4.1 1.7,1.7 4.5,3.4 3.7,6.2 -0.8,4.6 -9.8,4.3 -9,-0.9 2.1,1 4.2,3.9 6.7,1.9 1.3,-2.8 -2.3,-4.2 -3.8,-6 -2,-1.3 -2.2,-4.5 -0.3,-6 z"
   id="path89" />
	<g
   id="g93">
		<path
   class="st3"
   d="m 169.4,101.3 c 1.6,-1.1 3.5,-0.2 5.2,0.2 0.8,-0.3 1.6,-0.5 2.4,-0.8 -0.7,4.9 -1.3,9.9 -0.1,14.7 -0.6,0.1 -1.7,0.4 -2.3,0.6 -0.6,-2.3 -0.8,-4.6 -0.9,-7 -1.1,2.6 -2.3,5.5 -4.9,7 -2.3,0.2 -3.5,-2.2 -3.6,-4.2 -0.2,-3.7 0.7,-8.2 4.2,-10.5 z m 0.1,2 c -2.2,2.8 -2.6,7 -1.2,10.3 1,0.3 1.8,0 2.3,-0.9 2.3,-2.8 3.3,-6.3 4.1,-9.8 -1.7,-0.2 -3.9,-1.4 -5.2,0.4 z"
   id="path91" />
	</g>
	<g
   id="g97">
		<path
   class="st3"
   d="m 93.3,101.2 c 1.7,-1 3.5,0 5.2,0.4 0.6,-0.2 1.7,-0.6 2.2,-0.8 -0.9,5.3 -0.9,10.6 -0.2,15.9 -3.4,-1 -2.9,-4.7 -2.9,-7.5 -1.3,2.6 -2.4,6.2 -5.5,7.1 -2.4,-0.3 -3.1,-3.1 -3.1,-5.1 -0.2,-3.8 0.9,-8.1 4.3,-10 z m -0.1,2 c -2.5,3.1 -2.8,8 -0.5,11.3 3.1,-3.2 4.8,-7.3 5.7,-11.6 -1.6,-0.2 -3.8,-1.3 -5.2,0.3 z"
   id="path95" />
	</g>
	<path
   class="st3"
   d="m 105.1,101.1 c 0.5,0 1.6,-0.1 2.1,-0.1 0,2.7 0.1,5.5 0.3,8.2 -0.5,2.5 -0.8,5 -1.1,7.5 -1.1,-0.9 -2.5,-1.9 -2,-3.6 0.4,-4 1,-8 0.7,-12 z"
   id="path99" />
	<path
   class="st3"
   d="m 110.1,102.3 c 1.1,-0.9 2.2,-2.1 3.6,-1.1 1.6,1.9 0.7,4.7 0.9,6.9 1.2,-2.6 2,-5.6 4.5,-7.3 1.9,-0.4 3.1,1.4 2.9,3.1 -0.1,3.8 -0.6,7.6 0.2,11.4 -1.4,0.4 -0.9,0.2 -2.3,0.6 -1.4,-4.5 0.6,-9.1 -0.5,-13.6 -3.9,3.6 -5.3,9 -5.3,14.2 -1.5,-0.6 -2.7,-1.6 -2.2,-3.4 0.2,-3.1 0.7,-6.2 0.7,-9.3 0,-1 -1.2,-1.4 -1.8,-0.7 l -0.7,0.7 z"
   id="path101" />
	<g
   id="g105">
		<path
   class="st3"
   d="m 129.5,101.5 c 1.7,-1.2 3.7,-0.4 5.4,0.1 0.6,-0.2 1.8,-0.5 2.4,-0.7 -0.8,5.1 -1.2,10.3 -0.1,15.4 -3.8,-0.2 -3,-4.6 -3,-7.2 -1.2,2.4 -2.2,5.2 -4.6,6.8 -2,0.9 -3.5,-1.2 -3.8,-2.9 -0.7,-4.1 0.2,-9 3.7,-11.5 z m 1.9,0.8 c -2.3,0.8 -3.1,3.4 -3.4,5.6 -0.2,2.1 -0.6,5.1 1.8,6.1 3.1,-2.9 4.4,-7.1 5.4,-11.1 -1.3,-0.2 -2.5,-0.5 -3.8,-0.6 z"
   id="path103" />
	</g>
	<path
   class="st4"
   d="m 184,105.4 c 1.3,-1.5 3.1,-3.7 4.8,-4.9 0.4,0.5 1.3,1.6 1.7,2.1 -1.9,0.9 -5,3.3 -6.2,5.6 -0.4,-0.5 0.1,-2.2 -0.3,-2.8 z"
   id="path107" />
	<path
   class="st3"
   d="m 10,116.7 c 2.8,-4.2 6.9,-7.8 12,-8.9 4.9,-1.2 9.9,-0.2 14.6,1.1 0.2,0.7 0.6,2 0.8,2.7 -4.3,3.8 -9.4,7.8 -15.4,7.9 -4.2,0.3 -8.4,-0.7 -12,-2.8 z"
   id="path109" />
</g>
<g
   id="g115"
   transform="translate(-10,-78)">
	<path
   class="st3"
   d="m 107.2,100.9 c 0.3,1.4 0.6,2.8 0.8,4.2 0.8,-1.5 1.8,-2.9 3.2,-3.8 l -0.4,1.7 c -1.2,1.7 -2.2,4 -3.2,6.1 -0.3,-2.7 -0.3,-5.4 -0.4,-8.2 z"
   id="path113" />
</g>
<g
   id="g119"
   transform="translate(-10,-78)">
	<path
   class="st4"
   d="m 181.8,100.5 c 3.9,0.5 1.9,4.8 2.5,7.4 -0.9,2.7 -0.8,5.6 -0.6,8.4 -1,-0.6 -2.9,-0.8 -2.7,-2.3 0.1,-4.5 1.3,-9 0.8,-13.5 z"
   id="path117" />
</g>
<g
   id="g123"
   transform="translate(-10,-78)">
	<path
   class="st5"
   d="m 44.5,109.4 c 5,-0.7 10.2,-1.5 15,0.2 4.7,1.9 8.8,5.2 11.1,9.7 -4,1.7 -8.4,2.8 -12.7,2 -5.5,-1.1 -10.3,-4.7 -13.8,-9 0.2,-0.7 0.4,-2.1 0.4,-2.9 z"
   id="path121" />
</g>
</svg>
