<?xml version="1.0" encoding="utf-8"?>
<!-- Generator: Adobe Illustrator 22.0.0, SVG Export Plug-In . SVG Version: 6.00 Build 0)  -->
<svg version="1.1" id="Layer_1" xmlns="http://www.w3.org/2000/svg" xmlns:xlink="http://www.w3.org/1999/xlink" x="0px" y="0px"
	 viewBox="0 0 200 200" style="enable-background:new 0 0 200 200;" xml:space="preserve">
<style type="text/css">
	.st0{fill:#B485C7;}
	.st1{fill:#945BAB;}
	.st2{fill:#C28CC2;}
	.st3{fill:#8A25B1;}
	.st4{fill:#8323A8;}
	.st5{fill:#CFABCF;}
</style>
<g>
	<path class="st0" d="M35.5,92c0.4-5.2,2.3-10.5,6.3-14c3.5,4.2,6.1,9.4,5.4,15c-0.3,4.6-2.5,8.7-4.6,12.7c-0.8,0-2.4-0.1-3.3-0.2
		C37.5,101.2,35.4,96.8,35.5,92z"/>
</g>
<g>
	<path class="st1" d="M16.8,89.3c4.8-0.1,10,0.8,13.8,4c4.1,3.3,6.4,8.1,8.3,12.9c-0.5,0.6-1.5,1.7-1.9,2.2
		c-4.5-1.1-9.3-2.3-12.9-5.3C20,99.5,17.2,94.6,16.8,89.3z"/>
</g>
<g>
	<path class="st2" d="M51.8,94.7c4.3-3,9.7-4.3,14.9-3.8c-1,5.1-3.3,10.1-7.7,13.1c-4,2.9-8.9,4-13.8,4.6c-0.5-0.6-1.4-1.8-1.9-2.4
		C45.7,102,47.9,97.6,51.8,94.7z"/>
</g>
<g>
	<path class="st3" d="M154.1,94.9c1,0.5,2.8,0.7,2.5,2.2c0,3.6-0.9,7.2-1.3,10.8c2.1-2.1,4-4.4,5.7-6.8c0.7,0.3,1.3,0.6,2,1
		c-1.7,2-3.6,3.9-5.4,5.8c1.7,2.8,3.8,5.4,6.2,7.6c-1.3,0.2-2.9,1.2-3.8-0.2c-1.8-2-2.9-4.4-4.5-6.6c-0.6,2.7-0.4,5.4-0.3,8.1
		c-1.4-0.7-3.1-1.6-2.7-3.5C153.1,107,154.5,101,154.1,94.9z"/>
	<path class="st3" d="M74.2,96c1.3,0.5,3.1,0.5,3.6,2.2c2,4.4,3.1,9.2,4.9,13.7c1-5.4,1.6-10.8,1.7-16.2c0.8,0.7,2.1,1.2,1.9,2.5
		c-0.2,6.1-2.5,12.1-1.1,18.2c-1.4-0.7-3.4-0.9-4-2.6c-2.2-4.3-3.2-9.2-5-13.6c-1,5.4-2,10.8-1.3,16.3c-1.2-0.9-2.7-1.7-2.3-3.5
		C73.1,107.4,74.5,101.7,74.2,96z"/>
	<path class="st3" d="M142.7,101.8c1.7-1.2,4.1-1.4,6-0.6c0.7,0.9,0.5,2.1,0.8,3.1c-1.7-0.8-3.3-2.8-5.4-1.8
		c-1.6,1.4,0.2,3.1,1.3,4.1c1.7,1.7,4.5,3.4,3.7,6.2c-0.8,4.6-9.8,4.3-9-0.9c2.1,1,4.2,3.9,6.7,1.9c1.3-2.8-2.3-4.2-3.8-6
		C141,106.5,140.8,103.3,142.7,101.8z"/>
	<g>
		<path class="st3" d="M169.4,101.3c1.6-1.1,3.5-0.2,5.2,0.2c0.8-0.3,1.6-0.5,2.4-0.8c-0.7,4.9-1.3,9.9-0.1,14.7
			c-0.6,0.1-1.7,0.4-2.3,0.6c-0.6-2.3-0.8-4.6-0.9-7c-1.1,2.6-2.3,5.5-4.9,7c-2.3,0.2-3.5-2.2-3.6-4.2
			C165,108.1,165.9,103.6,169.4,101.3z M169.5,103.3c-2.2,2.8-2.6,7-1.2,10.3c1,0.3,1.8,0,2.3-0.9c2.3-2.8,3.3-6.3,4.1-9.8
			C173,102.7,170.8,101.5,169.5,103.3z"/>
	</g>
	<g>
		<path class="st3" d="M93.3,101.2c1.7-1,3.5,0,5.2,0.4c0.6-0.2,1.7-0.6,2.2-0.8c-0.9,5.3-0.9,10.6-0.2,15.9c-3.4-1-2.9-4.7-2.9-7.5
			c-1.3,2.6-2.4,6.2-5.5,7.1c-2.4-0.3-3.1-3.1-3.1-5.1C88.8,107.4,89.9,103.1,93.3,101.2z M93.2,103.2c-2.5,3.1-2.8,8-0.5,11.3
			c3.1-3.2,4.8-7.3,5.7-11.6C96.8,102.7,94.6,101.6,93.2,103.2z"/>
	</g>
	<path class="st3" d="M105.1,101.1c0.5,0,1.6-0.1,2.1-0.1c0,2.7,0.1,5.5,0.3,8.2c-0.5,2.5-0.8,5-1.1,7.5c-1.1-0.9-2.5-1.9-2-3.6
		C104.8,109.1,105.4,105.1,105.1,101.1z"/>
	<path class="st3" d="M110.1,102.3c1.1-0.9,2.2-2.1,3.6-1.1c1.6,1.9,0.7,4.7,0.9,6.9c1.2-2.6,2-5.6,4.5-7.3c1.9-0.4,3.1,1.4,2.9,3.1
		c-0.1,3.8-0.6,7.6,0.2,11.4c-1.4,0.4-0.9,0.2-2.3,0.6c-1.4-4.5,0.6-9.1-0.5-13.6c-3.9,3.6-5.3,9-5.3,14.2c-1.5-0.6-2.7-1.6-2.2-3.4
		c0.2-3.1,0.7-6.2,0.7-9.3c0-1-1.2-1.4-1.8-0.7l-0.7,0.7V102.3z"/>
	<g>
		<path class="st3" d="M129.5,101.5c1.7-1.2,3.7-0.4,5.4,0.1c0.6-0.2,1.8-0.5,2.4-0.7c-0.8,5.1-1.2,10.3-0.1,15.4
			c-3.8-0.2-3-4.6-3-7.2c-1.2,2.4-2.2,5.2-4.6,6.8c-2,0.9-3.5-1.2-3.8-2.9C125.1,108.9,126,104,129.5,101.5z M131.4,102.3
			c-2.3,0.8-3.1,3.4-3.4,5.6c-0.2,2.1-0.6,5.1,1.8,6.1c3.1-2.9,4.4-7.1,5.4-11.1C133.9,102.7,132.7,102.4,131.4,102.3z"/>
	</g>
	<path class="st4" d="M184,105.4c1.3-1.5,3.1-3.7,4.8-4.9c0.4,0.5,1.3,1.6,1.7,2.1c-1.9,0.9-5,3.3-6.2,5.6
		C183.9,107.7,184.4,106,184,105.4z"/>
	<path class="st3" d="M10,116.7c2.8-4.2,6.9-7.8,12-8.9c4.9-1.2,9.9-0.2,14.6,1.1c0.2,0.7,0.6,2,0.8,2.7c-4.3,3.8-9.4,7.8-15.4,7.9
		C17.8,119.8,13.6,118.8,10,116.7z"/>
</g>
<g>
	<path class="st3" d="M107.2,100.9c0.3,1.4,0.6,2.8,0.8,4.2c0.8-1.5,1.8-2.9,3.2-3.8l-0.4,1.7c-1.2,1.7-2.2,4-3.2,6.1
		C107.3,106.4,107.3,103.7,107.2,100.9z"/>
</g>
<g>
	<path class="st4" d="M181.8,100.5c3.9,0.5,1.9,4.8,2.5,7.4c-0.9,2.7-0.8,5.6-0.6,8.4c-1-0.6-2.9-0.8-2.7-2.3
		C181.1,109.5,182.3,105,181.8,100.5z"/>
</g>
<g>
	<path class="st5" d="M44.5,109.4c5-0.7,10.2-1.5,15,0.2c4.7,1.9,8.8,5.2,11.1,9.7c-4,1.7-8.4,2.8-12.7,2c-5.5-1.1-10.3-4.7-13.8-9
		C44.3,111.6,44.5,110.2,44.5,109.4z"/>
</g>
</svg>
