<?xml version="1.0" encoding="utf-8"?>
<!-- Generator: Adobe Illustrator 22.0.0, SVG Export Plug-In . SVG Version: 6.00 Build 0)  -->
<svg version="1.1" id="Layer_1" xmlns="http://www.w3.org/2000/svg" xmlns:xlink="http://www.w3.org/1999/xlink" x="0px" y="0px"
	 viewBox="0 0 200 200" style="enable-background:new 0 0 200 200;" xml:space="preserve">
<style type="text/css">
	.st0{fill:#B485C7;}
	.st1{fill:#945BAB;}
	.st2{fill:#C28CC2;}
	.st3{fill:#8A25B1;}
	.st4{fill:#CFABCF;}
</style>
<g>
	<g>
		<path class="st0" d="M88.8,75.9C89.7,64.1,94.1,52,103.2,44c7.9,9.5,13.9,21.6,12.3,34.3c-0.7,10.5-5.7,19.8-10.5,28.9
			c-1.8-0.1-5.5-0.3-7.4-0.4C93.5,96.9,88.7,86.8,88.8,75.9z"/>
	</g>
	<g>
		<path class="st1" d="M46.1,69.7c11-0.1,22.8,1.8,31.5,9.2c9.3,7.5,14.7,18.5,18.9,29.4c-1.1,1.3-3.3,3.8-4.4,5.1
			c-10.3-2.6-21.1-5.3-29.6-12.1C53.6,93.1,47.3,81.9,46.1,69.7z"/>
	</g>
	<g>
		<path class="st2" d="M126,82.1c9.9-6.8,22.2-9.9,34.1-8.7c-2.2,11.5-7.6,23.1-17.6,29.8c-9.2,6.6-20.4,9.2-31.4,10.6
			c-1-1.4-3.2-4.2-4.2-5.5C112.1,98.8,117.2,88.8,126,82.1z"/>
	</g>
	<path class="st3" d="M30.7,132.3c6.5-9.5,15.7-17.9,27.3-20.2c11.1-2.8,22.6-0.4,33.4,2.5c0.5,1.6,1.5,4.6,1.9,6.2
		c-9.9,8.8-21.4,17.8-35.3,17.9C48.6,139.3,39,137.1,30.7,132.3z"/>
	<g>
		<path class="st4" d="M109.6,115.7c11.3-1.6,23.2-3.4,34.3,0.5c10.7,4.2,20.1,11.9,25.4,22.2c-9,3.9-19.1,6.5-29,4.5
			c-12.6-2.6-23.5-10.7-31.5-20.6C109,120.7,109.4,117.4,109.6,115.7z"/>
	</g>
</g>
</svg>
