<?xml version="1.0" encoding="UTF-8" standalone="no"?>
<svg
   xmlns:dc="http://purl.org/dc/elements/1.1/"
   xmlns:cc="http://creativecommons.org/ns#"
   xmlns:rdf="http://www.w3.org/1999/02/22-rdf-syntax-ns#"
   xmlns:svg="http://www.w3.org/2000/svg"
   xmlns="http://www.w3.org/2000/svg"
   xmlns:sodipodi="http://sodipodi.sourceforge.net/DTD/sodipodi-0.dtd"
   xmlns:inkscape="http://www.inkscape.org/namespaces/inkscape"
   version="1.1"
   id="Layer_1"
   x="0px"
   y="0px"
   viewBox="0 0 138.60001 99.590805"
   xml:space="preserve"
   sodipodi:docname="logo.svg"
   width="138.60001"
   height="99.590805"
   inkscape:version="1.0.1 (3bc2e813f5, 2020-09-07)"><metadata
   id="metadata29"><rdf:RDF><cc:Work
       rdf:about=""><dc:format>image/svg+xml</dc:format><dc:type
         rdf:resource="http://purl.org/dc/dcmitype/StillImage" /><dc:title></dc:title></cc:Work></rdf:RDF></metadata><defs
   id="defs27" /><sodipodi:namedview
   pagecolor="#ffffff"
   bordercolor="#666666"
   borderopacity="1"
   objecttolerance="10"
   gridtolerance="10"
   guidetolerance="10"
   inkscape:pageopacity="0"
   inkscape:pageshadow="2"
   inkscape:window-width="1843"
   inkscape:window-height="1057"
   id="namedview25"
   showgrid="false"
   fit-margin-top="0"
   fit-margin-left="0"
   fit-margin-right="0"
   fit-margin-bottom="0"
   inkscape:zoom="4.45"
   inkscape:cx="69.3"
   inkscape:cy="56"
   inkscape:window-x="-8"
   inkscape:window-y="-8"
   inkscape:window-maximized="1"
   inkscape:current-layer="Layer_1" />
<style
   type="text/css"
   id="style2">
	.st0{fill:#B485C7;}
	.st1{fill:#945BAB;}
	.st2{fill:#C28CC2;}
	.st3{fill:#8A25B1;}
	.st4{fill:#CFABCF;}
</style>
<g
   id="g22"
   transform="translate(-30.7,-44)">
	<g
   id="g6">
		<path
   class="st0"
   d="M 88.8,75.9 C 89.7,64.1 94.1,52 103.2,44 c 7.9,9.5 13.9,21.6 12.3,34.3 -0.7,10.5 -5.7,19.8 -10.5,28.9 -1.8,-0.1 -5.5,-0.3 -7.4,-0.4 -4.1,-9.9 -8.9,-20 -8.8,-30.9 z"
   id="path4" />
	</g>
	<g
   id="g10">
		<path
   class="st1"
   d="m 46.1,69.7 c 11,-0.1 22.8,1.8 31.5,9.2 9.3,7.5 14.7,18.5 18.9,29.4 -1.1,1.3 -3.3,3.8 -4.4,5.1 C 81.8,110.8 71,108.1 62.5,101.3 53.6,93.1 47.3,81.9 46.1,69.7 Z"
   id="path8" />
	</g>
	<g
   id="g14">
		<path
   class="st2"
   d="m 126,82.1 c 9.9,-6.8 22.2,-9.9 34.1,-8.7 -2.2,11.5 -7.6,23.1 -17.6,29.8 -9.2,6.6 -20.4,9.2 -31.4,10.6 -1,-1.4 -3.2,-4.2 -4.2,-5.5 5.2,-9.5 10.3,-19.5 19.1,-26.2 z"
   id="path12" />
	</g>
	<path
   class="st3"
   d="m 30.7,132.3 c 6.5,-9.5 15.7,-17.9 27.3,-20.2 11.1,-2.8 22.6,-0.4 33.4,2.5 0.5,1.6 1.5,4.6 1.9,6.2 -9.9,8.8 -21.4,17.8 -35.3,17.9 -9.4,0.6 -19,-1.6 -27.3,-6.4 z"
   id="path16" />
	<g
   id="g20">
		<path
   class="st4"
   d="m 109.6,115.7 c 11.3,-1.6 23.2,-3.4 34.3,0.5 10.7,4.2 20.1,11.9 25.4,22.2 -9,3.9 -19.1,6.5 -29,4.5 -12.6,-2.6 -23.5,-10.7 -31.5,-20.6 0.2,-1.6 0.6,-4.9 0.8,-6.6 z"
   id="path18" />
	</g>
</g>
</svg>
